<?xml version="1.0" encoding="UTF-8"?>
<!DOCTYPE svg PUBLIC "-//W3C//DTD SVG 1.1//EN" "http://www.w3.org/Graphics/SVG/1.1/DTD/svg11.dtd">
<!-- Creator: CorelDRAW 2021 (64-Bit) -->
<svg xmlns="http://www.w3.org/2000/svg" xml:space="preserve" width="258px" height="300px" version="1.1" style="shape-rendering:geometricPrecision; text-rendering:geometricPrecision; image-rendering:optimizeQuality; fill-rule:evenodd; clip-rule:evenodd"
viewBox="0 0 258 299.43"
 xmlns:xlink="http://www.w3.org/1999/xlink"
 xmlns:xodm="http://www.corel.com/coreldraw/odm/2003">
 <defs>
  <style type="text/css">
   <![CDATA[
    .fil3 {fill:#FEFEFE;fill-rule:nonzero}
    .fil5 {fill:#DCF0FB;fill-rule:nonzero}
    .fil1 {fill:#887EB9;fill-rule:nonzero}
    .fil2 {fill:#7362A8;fill-rule:nonzero}
    .fil4 {fill:#494396;fill-rule:nonzero}
    .fil0 {fill:#CCCCCC;fill-rule:nonzero}
   ]]>
  </style>
 </defs>
 <g id="Layer_x0020_1">
  <metadata id="CorelCorpID_0Corel-Layer"/>
  <g id="_2615842245440">
   <path class="fil0" d="M238.69 299.43l-204.47 0c-8.92,0 -16.39,-6.15 -18.44,-14.45 -5.69,-3.28 -9.53,-9.42 -9.53,-16.47l0 -218.98c0,-10.5 8.51,-19.02 19.02,-19.02l198.94 0 0 -7.82c0,-6.09 -4.95,-11.05 -11.05,-11.05 -6.09,0 -11.05,4.96 -11.05,11.05l0 7.82 -5.1 0 0 -7.82c0,-8.91 7.25,-16.15 16.15,-16.15 8.91,0 16.15,7.24 16.15,16.15l0 7.89c9.86,0.71 17.64,8.92 17.64,18.95l0 2.95c6.36,3.08 10.76,9.57 10.76,17.11l0 210.82c0,10.51 -8.52,19.02 -19.02,19.02z"/>
   <path class="fil0" d="M232.15 292.89l-204.47 0c-10.5,0 -19.02,-8.52 -19.02,-19.02l0 -229.84 223.49 0c10.5,0 19.01,8.52 19.01,19.02l0 210.82c0,10.5 -8.51,19.02 -19.01,19.02z"/>
   <path class="fil1" d="M-0.29 42.99l0 218.98c0,10.51 8.51,19.02 19.01,19.02l202.66 0c10.51,0 19.03,-8.51 19.03,-19.02l0 -218.98c0,-10.5 -8.52,-19.02 -19.03,-19.02l-202.66 0c-10.5,0 -19.01,8.52 -19.01,19.02z"/>
   <path class="fil2" d="M240.41 83.13l-240.7 0 0 -40.14c0,-10.5 8.51,-19.02 19.01,-19.02l202.66 0c10.51,0 19.03,8.52 19.03,19.02l0 40.14z"/>
   <path class="fil3" d="M14.39 68.06c0,0.98 1.19,1.47 2.38,1.47 1.19,0 2.38,-0.49 2.38,-1.47l0 -7.87 4.61 0c1.01,0 1.44,-0.98 1.44,-1.81 0,-0.97 -0.52,-1.86 -1.44,-1.86l-4.61 0 0 -5.16 7.91 0c0.92,0 1.44,-0.98 1.44,-2.1 0,-0.98 -0.43,-2.05 -1.44,-2.05l-10.59 0c-1.04,0 -2.08,0.49 -2.08,1.47l0 19.38zm15.72 0c0,0.98 1.19,1.47 2.38,1.47 1.19,0 2.39,-0.49 2.39,-1.47l0 -7.36 2.01 0 4.18 8.13c0.34,0.64 0.92,0.88 1.53,0.88 1.4,0 2.99,-1.28 2.99,-2.47 0,-0.15 -0.03,-0.37 -0.15,-0.55l-3.72 -6.75c2.13,-0.82 3.69,-2.78 3.69,-6.2 0,-4.97 -3.33,-6.53 -7.51,-6.53l-6.32 0c-0.89,0 -1.47,0.67 -1.47,1.43l0 19.42zm7.79 -16.7c1.71,0 2.75,0.7 2.75,2.84 0,2.14 -1.04,2.84 -2.75,2.84l-3.02 0 0 -5.68 3.02 0zm10.04 16.7c0,0.98 1.19,1.47 2.38,1.47 1.2,0 2.39,-0.49 2.39,-1.47l0 -19.42c0,-1 -1.19,-1.43 -2.39,-1.43 -1.19,0 -2.38,0.43 -2.38,1.43l0 19.42zm10.14 -20.85c-1.25,0 -2.08,0.67 -2.08,1.43l0 19.45c0,0.77 0.83,1.44 2.08,1.44l5.4 0c4.22,0 7.51,-1.96 7.51,-7.21l0 -7.9c0,-5.26 -3.29,-7.21 -7.51,-7.21l-5.4 0zm5.4 4.15c1.71,0 2.75,0.98 2.75,3.06l0 7.9c0,2.08 -1.04,3.06 -2.75,3.06l-2.71 0 0 -14.02 2.71 0zm12.06 18.17c0.77,0 1.38,-0.25 1.56,-0.89l1.04 -3.81 6.44 0 1.04 3.81c0.18,0.64 0.79,0.89 1.56,0.89 1.31,0 3.05,-0.83 3.05,-1.96 0,-0.09 -0.03,-0.21 -0.06,-0.33l-5.71 -18.63c-0.34,-1.06 -1.71,-1.58 -3.11,-1.58 -1.41,0 -2.78,0.52 -3.12,1.58l-5.68 18.63c-0.03,0.12 -0.06,0.24 -0.06,0.33 0,1.13 1.74,1.96 3.05,1.96zm3.58 -8.37l2.23 -8.18 2.22 8.18 -4.45 0zm15.87 6.9c0,0.98 1.19,1.47 2.38,1.47 1.2,0 2.39,-0.49 2.39,-1.47l0 -7.66c0,-0.18 0.06,-0.34 0.12,-0.43l6.29 -10.47c0.06,-0.12 0.06,-0.24 0.06,-0.34 0,-1.13 -1.92,-1.95 -3.24,-1.95 -0.76,0 -1.07,0.31 -1.37,0.89l-4.25 7.84 -4.27 -7.84c-0.34,-0.58 -0.61,-0.89 -1.37,-0.89 -1.32,0 -3.24,0.82 -3.24,1.95 0,0.1 0,0.22 0.06,0.34l6.32 10.47c0.06,0.09 0.12,0.25 0.12,0.43l0 7.66z"/>
   <path class="fil2" d="M205.37 135.48l-170.63 0c-4.51,0 -8.16,-3.65 -8.16,-8.16 0,-4.5 3.65,-8.16 8.16,-8.16l170.63 0c4.51,0 8.16,3.66 8.16,8.16 0,4.51 -3.65,8.16 -8.16,8.16z"/>
   <path class="fil2" d="M205.37 170.84l-170.63 0c-4.51,0 -8.16,-3.65 -8.16,-8.16 0,-4.51 3.65,-8.16 8.16,-8.16l170.63 0c4.51,0 8.16,3.65 8.16,8.16 0,4.51 -3.65,8.16 -8.16,8.16z"/>
   <path class="fil2" d="M162.53 206.2l-127.79 0c-4.51,0 -8.16,-3.66 -8.16,-8.16 0,-4.51 3.65,-8.16 8.16,-8.16l127.79 0c4.5,0 8.16,3.65 8.16,8.16 0,4.5 -3.66,8.16 -8.16,8.16z"/>
   <path class="fil4" d="M217.67 30.63l0 35.09c0,3.85 -3.13,6.97 -6.97,6.97 -3.84,0 -6.97,-3.12 -6.97,-6.97l0 -24.64c0,-1.41 -1.14,-2.55 -2.55,-2.55 -1.41,0 -2.55,1.14 -2.55,2.55l0 24.64c0,6.66 5.41,12.07 12.07,12.07 6.65,0 12.07,-5.41 12.07,-12.07l0 -35.09 -5.1 0z"/>
   <path class="fil5" d="M195.57 23.97l0 -7.82c0,-3.06 1.23,-5.81 3.24,-7.82 2,-2 4.75,-3.23 7.81,-3.23 3.06,0 5.81,1.23 7.81,3.23 2.01,2.01 3.24,4.76 3.24,7.82l0 45.21c-0.01,3.85 -3.12,6.96 -6.97,6.97 -3.85,-0.01 -6.96,-3.12 -6.97,-6.97l0 -18.53 -5.1 0 0 18.53c0,6.67 5.4,12.07 12.07,12.07 6.67,0 12.07,-5.4 12.07,-12.07l0 -45.21c0,-8.92 -7.23,-16.15 -16.15,-16.15 -8.92,0 -16.15,7.23 -16.15,16.15l0 7.82 5.1 0z"/>
   <path class="fil5" d="M195.57 16.15c0,-3.06 1.23,-5.81 3.24,-7.82 2,-2 4.75,-3.23 7.81,-3.23 1.41,0 2.55,-1.14 2.55,-2.55 0,-1.41 -1.14,-2.55 -2.55,-2.55 -8.92,0 -16.15,7.23 -16.15,16.15 0,1.4 1.14,2.54 2.55,2.54 1.41,0 2.55,-1.14 2.55,-2.54z"/>
   <path class="fil5" d="M203.73 46.74l0 -10.02c0,-1.41 -1.14,-2.55 -2.55,-2.55 -1.41,0 -2.55,1.14 -2.55,2.55l0 10.02c0,1.41 1.14,2.55 2.55,2.55 1.41,0 2.55,-1.14 2.55,-2.55z"/>
  </g>
 </g>
</svg>
