<?xml version="1.0" encoding="UTF-8"?>
<!DOCTYPE svg PUBLIC "-//W3C//DTD SVG 1.1//EN" "http://www.w3.org/Graphics/SVG/1.1/DTD/svg11.dtd">
<!-- Creator: CorelDRAW 2021 (64-Bit) -->
<svg xmlns="http://www.w3.org/2000/svg" xml:space="preserve" width="274px" height="300px" version="1.1" style="shape-rendering:geometricPrecision; text-rendering:geometricPrecision; image-rendering:optimizeQuality; fill-rule:evenodd; clip-rule:evenodd"
viewBox="0 0 274 299.65"
 xmlns:xlink="http://www.w3.org/1999/xlink"
 xmlns:xodm="http://www.corel.com/coreldraw/odm/2003">
 <defs>
  <style type="text/css">
   <![CDATA[
    .fil5 {fill:#FEFEFE;fill-rule:nonzero}
    .fil4 {fill:#FAD49F;fill-rule:nonzero}
    .fil2 {fill:#F29A67;fill-rule:nonzero}
    .fil3 {fill:#ED734E;fill-rule:nonzero}
    .fil1 {fill:#E1654B;fill-rule:nonzero}
    .fil6 {fill:#DCF0FB;fill-rule:nonzero}
    .fil0 {fill:#CCCCCC;fill-rule:nonzero}
   ]]>
  </style>
 </defs>
 <g id="Layer_x0020_1">
  <metadata id="CorelCorpID_0Corel-Layer"/>
  <g id="_2615679823264">
   <path class="fil0" d="M249.94 299.65l-213.73 0c-10.56,0 -19.46,-7.06 -22.28,-16.71 -3.73,-4.11 -6.02,-9.56 -6.02,-15.55l0 -211.38c0,-12.82 10.4,-23.22 23.23,-23.22l169.5 0 0 -7.84c0,-8.93 7.27,-16.2 16.2,-16.2 8.93,0 16.2,7.27 16.2,16.2l0 7.84 9.47 0c7.77,0 14.64,3.84 18.85,9.7 7.04,3.99 11.8,11.54 11.8,20.21l0 213.73c0,12.82 -10.4,23.22 -23.22,23.22zm-33.1 -285.79c-6.11,0 -11.08,4.98 -11.08,11.09l0 7.84 22.17 0 0 -7.84c0,-6.11 -4.98,-11.09 -11.09,-11.09z"/>
   <path class="fil1" d="M241.19 290.9l-213.73 0c-12.83,0 -23.22,-10.4 -23.22,-23.22l0 -213.73c0,-12.83 10.39,-23.23 23.22,-23.23l213.73 0c12.82,0 23.22,10.4 23.22,23.23l0 213.73c0,12.82 -10.4,23.22 -23.22,23.22z"/>
   <path class="fil2" d="M205.14 281.86l-182.76 0c-12.82,0 -23.22,-10.4 -23.22,-23.22l0 -211.38c0,-12.82 10.4,-23.22 23.22,-23.22l211.38 0c12.83,0 23.22,10.4 23.22,23.22l0 186.86 -51.84 47.74z"/>
   <path class="fil3" d="M256.98 83.38l-257.82 0 0 -36.12c0,-12.82 10.4,-23.22 23.22,-23.22l211.38 0c12.83,0 23.22,10.4 23.22,23.22l0 36.12z"/>
   <path class="fil3" d="M210.48 236.06l46.5 -1.94 -51.84 47.74 -3.94 -34.96c-0.63,-5.62 3.63,-10.6 9.28,-10.84z"/>
   <path class="fil4" d="M217.12 237.26l39.86 -3.14 -51.84 47.74 0 -31.64c0,-6.78 5.22,-12.42 11.98,-12.96z"/>
   <path class="fil5" d="M33.07 60.37l0 11.49c0,0.98 1.2,1.47 2.39,1.47 1.2,0 2.39,-0.49 2.39,-1.47l0 -18.53c0,-1.75 -1.16,-2.39 -2.39,-2.39 -1.71,0 -2.45,0.18 -3.7,2.39l-3.16 5.51 -3.15 -5.51c-1.26,-2.21 -1.99,-2.39 -3.71,-2.39 -1.19,0 -2.39,0.64 -2.39,2.39l0 18.53c0,0.98 1.2,1.47 2.39,1.47 1.2,0 2.39,-0.49 2.39,-1.47l0 -11.8 2.91 5.33c0.37,0.71 0.95,0.89 1.5,0.89 0.58,0 1.2,-0.21 1.59,-0.89l2.94 -5.02zm15.35 13.14c4.22,0 7.53,-1.96 7.53,-7.23l0 -8.11c0,-5.27 -3.31,-7.23 -7.53,-7.23 -4.23,0 -7.51,1.96 -7.51,7.23l0 8.11c0,5.27 3.28,7.23 7.51,7.23zm2.75 -7.23c0,2.12 -1.04,3.06 -2.75,3.06 -1.72,0 -2.73,-0.94 -2.73,-3.06l0 -8.11c0,-2.12 1.01,-3.07 2.73,-3.07 1.71,0 2.75,0.95 2.75,3.07l0 8.11zm21.11 7.05c1.19,0 2.38,-0.49 2.38,-1.47l0 -19.48c0,-1.01 -1.19,-1.44 -2.38,-1.44 -1.2,0 -2.39,0.43 -2.39,1.44l0 10.41 -4.96 -9.46c-1.17,-2.24 -1.81,-2.39 -3.53,-2.39 -1.19,0 -2.39,0.46 -2.39,1.47l0 19.45c0,0.98 1.2,1.47 2.39,1.47 1.2,0 2.39,-0.49 2.39,-1.47l0 -10.42 5.82 10.6c0.58,1.07 1.56,1.29 2.67,1.29zm7.77 -22.39c-1.25,0 -2.08,0.67 -2.08,1.44l0 19.51c0,0.76 0.83,1.44 2.08,1.44l5.43 0c4.22,0 7.53,-1.96 7.53,-7.23l0 -7.93c0,-5.27 -3.31,-7.23 -7.53,-7.23l-5.43 0zm5.43 4.16c1.71,0 2.75,0.98 2.75,3.07l0 7.93c0,2.08 -1.04,3.06 -2.75,3.06l-2.73 0 0 -14.06 2.73 0zm12.09 18.23c0.77,0 1.38,-0.25 1.56,-0.89l1.05 -3.83 6.46 0 1.04 3.83c0.18,0.64 0.8,0.89 1.56,0.89 1.32,0 3.06,-0.83 3.06,-1.96 0,-0.1 -0.03,-0.22 -0.06,-0.34l-5.72 -18.68c-0.34,-1.08 -1.72,-1.6 -3.13,-1.6 -1.41,0 -2.78,0.52 -3.12,1.6l-5.7 18.68c-0.03,0.12 -0.06,0.24 -0.06,0.34 0,1.13 1.75,1.96 3.06,1.96zm3.59 -8.4l2.23 -8.2 2.24 8.2 -4.47 0zm15.92 6.93c0,0.98 1.2,1.47 2.39,1.47 1.2,0 2.39,-0.49 2.39,-1.47l0 -7.69c0,-0.18 0.06,-0.34 0.12,-0.43l6.31 -10.5c0.06,-0.13 0.06,-0.25 0.06,-0.34 0,-1.14 -1.93,-1.96 -3.24,-1.96 -0.77,0 -1.08,0.3 -1.38,0.89l-4.26 7.87 -4.29 -7.87c-0.33,-0.59 -0.61,-0.89 -1.37,-0.89 -1.32,0 -3.25,0.82 -3.25,1.96 0,0.09 0,0.21 0.06,0.34l6.34 10.5c0.06,0.09 0.12,0.25 0.12,0.43l0 7.69z"/>
   <path class="fil3" d="M200.79 131.12l-171.16 0c-4.52,0 -8.18,-3.66 -8.18,-8.18 0,-4.52 3.66,-8.19 8.18,-8.19l171.16 0c4.52,0 8.19,3.67 8.19,8.19 0,4.52 -3.67,8.18 -8.19,8.18z"/>
   <path class="fil3" d="M200.79 166.59l-171.16 0c-4.52,0 -8.18,-3.66 -8.18,-8.18 0,-4.52 3.66,-8.19 8.18,-8.19l171.16 0c4.52,0 8.19,3.67 8.19,8.19 0,4.52 -3.67,8.18 -8.19,8.18z"/>
   <path class="fil3" d="M200.79 202.06l-171.16 0c-4.52,0 -8.18,-3.67 -8.18,-8.19l0 0c0,-4.52 3.66,-8.18 8.18,-8.18l171.16 0c4.52,0 8.19,3.66 8.19,8.18l0 0c0,4.52 -3.67,8.19 -8.19,8.19z"/>
   <path class="fil3" d="M143.11 237.53l-113.48 0c-4.52,0 -8.18,-3.67 -8.18,-8.19 0,-4.52 3.66,-8.18 8.18,-8.18l113.48 0c4.52,0 8.18,3.66 8.18,8.18 0,4.52 -3.66,8.19 -8.18,8.19z"/>
   <path class="fil1" d="M219.18 30.72l0 35.21c0,3.85 -3.14,6.99 -7,6.99 -3.85,0 -6.99,-3.14 -6.99,-6.99l0 -24.72c0,-1.42 -1.14,-2.56 -2.55,-2.56 -1.42,0 -2.56,1.14 -2.56,2.56l0 24.72c0,6.67 5.43,12.11 12.1,12.11 6.68,0 12.11,-5.44 12.11,-12.11l0 -35.21 -5.11 0z"/>
   <path class="fil6" d="M197.01 24.04l0 -7.84c0,-3.07 1.23,-5.82 3.24,-7.84 2.02,-2.01 4.77,-3.24 7.84,-3.25 3.07,0.01 5.83,1.24 7.84,3.25 2.01,2.02 3.24,4.77 3.24,7.84l0 45.35c0,3.86 -3.13,6.99 -6.99,7 -3.86,-0.01 -6.98,-3.14 -6.99,-7l0 -18.58 -5.11 0 0 18.58c0,6.69 5.42,12.11 12.1,12.11 6.69,0 12.11,-5.42 12.11,-12.11l0 -45.35c0,-8.95 -7.25,-16.2 -16.2,-16.2 -8.94,0 -16.19,7.25 -16.2,16.2l0 7.84 5.12 0z"/>
   <path class="fil5" d="M197.01 16.2c0,-3.07 1.23,-5.82 3.24,-7.84 2.02,-2.01 4.77,-3.24 7.84,-3.25 1.41,0 2.56,-1.14 2.56,-2.55 0,-1.42 -1.15,-2.56 -2.56,-2.56 -8.94,0 -16.19,7.25 -16.2,16.2 0,1.41 1.15,2.56 2.56,2.56 1.42,0 2.56,-1.15 2.56,-2.56z"/>
   <path class="fil6" d="M205.19 46.89l0 -10.06c0,-1.41 -1.14,-2.56 -2.55,-2.56 -1.42,0 -2.56,1.15 -2.56,2.56l0 10.06c0,1.41 1.14,2.56 2.56,2.56 1.41,0 2.55,-1.15 2.55,-2.56z"/>
  </g>
 </g>
</svg>
