<?xml version="1.0" encoding="UTF-8"?>
<!DOCTYPE svg PUBLIC "-//W3C//DTD SVG 1.1//EN" "http://www.w3.org/Graphics/SVG/1.1/DTD/svg11.dtd">
<!-- Creator: CorelDRAW 2021 (64-Bit) -->
<svg xmlns="http://www.w3.org/2000/svg" xml:space="preserve" width="271px" height="300px" version="1.1" style="shape-rendering:geometricPrecision; text-rendering:geometricPrecision; image-rendering:optimizeQuality; fill-rule:evenodd; clip-rule:evenodd"
viewBox="0 0 271 299.76"
 xmlns:xlink="http://www.w3.org/1999/xlink"
 xmlns:xodm="http://www.corel.com/coreldraw/odm/2003">
 <defs>
  <style type="text/css">
   <![CDATA[
    .fil4 {fill:#FEFEFE;fill-rule:nonzero}
    .fil6 {fill:#DCF0FB;fill-rule:nonzero}
    .fil3 {fill:#CDE9EB;fill-rule:nonzero}
    .fil1 {fill:#98D3D6;fill-rule:nonzero}
    .fil2 {fill:#76C7CA;fill-rule:nonzero}
    .fil5 {fill:#5BB5B7;fill-rule:nonzero}
    .fil0 {fill:#CCCCCC;fill-rule:nonzero}
   ]]>
  </style>
 </defs>
 <g id="Layer_x0020_1">
  <metadata id="CorelCorpID_0Corel-Layer"/>
  <g id="_2615684371296">
   <path class="fil0" d="M249.79 299.76l-213.36 0c-8.83,0 -16.37,-5.51 -19.39,-13.28 -6.47,-3.53 -10.86,-10.39 -10.86,-18.28l0 -216.69c0,-11.5 9.33,-20.82 20.83,-20.82l216.61 0 0 -7.88c0,-6.13 -4.98,-11.11 -11.11,-11.11 -6.12,0 -11.1,4.98 -11.1,11.11l0 7.86 -5.13 0 0 -7.86c0,-8.96 7.28,-16.23 16.23,-16.23 8.95,0 16.24,7.27 16.24,16.23l0 8.52c6.83,1.7 12.31,6.77 14.6,13.35 4.44,3.82 7.26,9.46 7.26,15.78l0 218.47c0,11.5 -9.32,20.83 -20.82,20.83z"/>
   <path class="fil0" d="M243.21 293.18l-213.36 0c-11.5,0 -20.82,-9.32 -20.82,-20.82l0 -218.48c0,-11.5 9.32,-20.82 20.82,-20.82l213.36 0c11.5,0 20.82,9.32 20.82,20.82l0 218.48c0,11.5 -9.32,20.82 -20.82,20.82z"/>
   <path class="fil1" d="M206.01 282.45l-185.58 0c-11.5,0 -20.82,-9.33 -20.82,-20.83l0 -216.69c0,-11.5 9.32,-20.82 20.82,-20.82l216.69 0c11.5,0 20.83,9.32 20.83,20.82l0 189.68 -51.94 47.84z"/>
   <path class="fil2" d="M257.95 83.57l-237.52 0c-11.5,0 -20.82,-9.32 -20.82,-20.83l0 -17.81c0,-11.5 9.32,-20.82 20.82,-20.82l216.69 0c11.5,0 20.83,9.32 20.83,20.82l0 38.64z"/>
   <path class="fil2" d="M215.5 236.39l42.45 -1.78 -51.94 47.84 -3.49 -30.91c-0.89,-7.86 5.08,-14.82 12.98,-15.15z"/>
   <path class="fil3" d="M217.83 237.78l40.12 -3.17 -51.94 47.84 0 -31.88c0,-6.7 5.14,-12.27 11.82,-12.79z"/>
   <path class="fil4" d="M24.33 68.99c-2.86,0 -3.78,-2.27 -5.22,-2.27 -1.17,0 -2.09,1.53 -2.09,2.58 0,2.02 3.38,3.99 7.4,3.99 4.45,0 7.67,-2.4 7.67,-6.82 0,-7.73 -9.73,-7.15 -9.73,-10.22 0,-0.95 0.89,-1.84 3.07,-1.84 2.52,0 3.1,1.17 4.21,1.17 1.35,0 1.9,-1.69 1.9,-2.52 0,-2.39 -4.48,-2.7 -6.11,-2.7 -3.83,0 -7.86,1.75 -7.86,6.35 0,7.18 9.73,6.54 9.73,10.25 0,1.48 -1.56,2.03 -2.97,2.03zm11.66 3.99c0.76,0 1.38,-0.25 1.56,-0.89l1.05 -3.84 6.47 0 1.05 3.84c0.18,0.64 0.79,0.89 1.56,0.89 1.32,0 3.07,-0.83 3.07,-1.97 0,-0.09 -0.03,-0.21 -0.06,-0.33l-5.74 -18.72c-0.34,-1.08 -1.72,-1.6 -3.13,-1.6 -1.41,0 -2.79,0.52 -3.13,1.6l-5.71 18.72c-0.03,0.12 -0.06,0.24 -0.06,0.33 0,1.14 1.75,1.97 3.07,1.97zm3.59 -8.41l2.24 -8.22 2.24 8.22 -4.48 0zm11.05 -14.02c-1.02,0 -1.45,1.1 -1.45,2.11 0,1.17 0.53,2.18 1.45,2.18l4.23 0 0 16.67c0,0.98 1.2,1.47 2.39,1.47 1.2,0 2.4,-0.49 2.4,-1.47l0 -16.67 4.23 0c0.92,0 1.45,-1.01 1.45,-2.18 0,-1.01 -0.43,-2.11 -1.45,-2.11l-13.25 0zm27.19 15.37c0,2.09 -1.11,3.07 -2.95,3.07 -1.84,0 -2.95,-0.98 -2.95,-3.07l0 -13.93c0,-1.01 -1.22,-1.44 -2.39,-1.44 -1.23,0 -2.39,0.43 -2.39,1.44l0 13.93c0,5.28 3.37,7.24 7.73,7.24 4.33,0 7.73,-1.96 7.73,-7.24l0 -13.93c0,-1.01 -1.22,-1.44 -2.39,-1.44 -1.23,0 -2.39,0.43 -2.39,1.44l0 13.93zm8.01 5.59c0,0.98 1.19,1.47 2.39,1.47 1.2,0 2.39,-0.49 2.39,-1.47l0 -7.4 2.03 0 4.2 8.16c0.34,0.65 0.92,0.89 1.54,0.89 1.41,0 3.01,-1.29 3.01,-2.48 0,-0.16 -0.04,-0.37 -0.16,-0.56l-3.74 -6.78c2.15,-0.83 3.71,-2.79 3.71,-6.23 0,-5 -3.34,-6.56 -7.55,-6.56l-6.35 0c-0.89,0 -1.47,0.67 -1.47,1.44l0 19.52zm7.82 -16.79c1.72,0 2.76,0.71 2.76,2.85 0,2.15 -1.04,2.86 -2.76,2.86l-3.04 0 0 -5.71 3.04 0zm12.18 -4.17c-1.25,0 -2.08,0.67 -2.08,1.44l0 19.55c0,0.76 0.83,1.44 2.08,1.44l5.44 0c4.23,0 7.55,-1.97 7.55,-7.24l0 -7.95c0,-5.28 -3.32,-7.24 -7.55,-7.24l-5.44 0zm5.44 4.17c1.72,0 2.76,0.98 2.76,3.07l0 7.95c0,2.08 -1.04,3.07 -2.76,3.07l-2.73 0 0 -14.09 2.73 0zm12.12 18.26c0.77,0 1.38,-0.25 1.56,-0.89l1.05 -3.84 6.47 0 1.05 3.84c0.18,0.64 0.79,0.89 1.56,0.89 1.32,0 3.07,-0.83 3.07,-1.97 0,-0.09 -0.03,-0.21 -0.06,-0.33l-5.74 -18.72c-0.34,-1.08 -1.72,-1.6 -3.13,-1.6 -1.41,0 -2.79,0.52 -3.13,1.6l-5.71 18.72c-0.03,0.12 -0.06,0.24 -0.06,0.33 0,1.14 1.75,1.97 3.07,1.97zm3.59 -8.41l2.24 -8.22 2.24 8.22 -4.48 0zm15.96 6.94c0,0.98 1.19,1.47 2.39,1.47 1.2,0 2.39,-0.49 2.39,-1.47l0 -7.71c0,-0.18 0.07,-0.34 0.13,-0.43l6.32 -10.52c0.06,-0.13 0.06,-0.25 0.06,-0.34 0,-1.14 -1.93,-1.96 -3.25,-1.96 -0.77,0 -1.08,0.3 -1.38,0.89l-4.27 7.88 -4.3 -7.88c-0.33,-0.59 -0.61,-0.89 -1.38,-0.89 -1.32,0 -3.25,0.82 -3.25,1.96 0,0.09 0,0.21 0.06,0.34l6.35 10.52c0.07,0.09 0.13,0.25 0.13,0.43l0 7.71z"/>
   <path class="fil2" d="M214.53 134.8l-171.51 0c-4.53,0 -8.2,-3.67 -8.2,-8.2 0,-4.53 3.67,-8.2 8.2,-8.2l171.51 0c4.53,0 8.2,3.67 8.2,8.2 0,4.53 -3.67,8.2 -8.2,8.2z"/>
   <path class="fil2" d="M214.53 170.34l-171.51 0c-4.53,0 -8.2,-3.67 -8.2,-8.2 0,-4.53 3.67,-8.2 8.2,-8.2l171.51 0c4.53,0 8.2,3.67 8.2,8.2 0,4.53 -3.67,8.2 -8.2,8.2z"/>
   <path class="fil2" d="M214.53 205.88l-171.51 0c-4.53,0 -8.2,-3.67 -8.2,-8.2 0,-4.53 3.67,-8.21 8.2,-8.21l171.51 0c4.53,0 8.2,3.68 8.2,8.21 0,4.53 -3.67,8.2 -8.2,8.2z"/>
   <path class="fil2" d="M156.73 241.42l-113.71 0c-4.53,0 -8.2,-3.68 -8.2,-8.2 0,-4.53 3.67,-8.21 8.2,-8.21l113.71 0c4.53,0 8.21,3.68 8.21,8.21 0,4.52 -3.68,8.2 -8.21,8.2z"/>
   <path class="fil5" d="M237.05 30.79l0 35.27c0,3.86 -3.15,7.01 -7.01,7.01 -3.86,0 -7.01,-3.15 -7.01,-7.01l0 -24.77c0,-1.42 -1.15,-2.56 -2.56,-2.56 -1.42,0 -2.56,1.14 -2.56,2.56l0 24.77c0,6.69 5.44,12.13 12.13,12.13 6.69,0 12.13,-5.44 12.13,-12.13l0 -35.27 -5.12 0z"/>
   <path class="fil6" d="M214.83 24.09l0 -7.86c0.01,-3.07 1.24,-5.83 3.26,-7.85 2.01,-2.02 4.77,-3.25 7.85,-3.26 3.07,0.01 5.83,1.24 7.85,3.26 2.02,2.02 3.25,4.78 3.25,7.85l0 45.45c0,3.87 -3.13,7 -7,7 -3.87,0 -7,-3.13 -7.01,-7l0 -18.62 -5.12 0 0 18.62c0,6.7 5.43,12.13 12.13,12.13 6.7,0 12.13,-5.43 12.13,-12.13l0 -45.45c0,-8.96 -7.27,-16.23 -16.23,-16.23 -8.97,0 -16.23,7.27 -16.23,16.23l0 7.86 5.12 0z"/>
   <path class="fil6" d="M214.83 16.23c0.01,-3.07 1.24,-5.83 3.26,-7.85 2.01,-2.02 4.77,-3.25 7.85,-3.26 1.41,0 2.56,-1.14 2.56,-2.56 0,-1.41 -1.15,-2.56 -2.56,-2.56 -8.97,0 -16.23,7.27 -16.23,16.23 0,1.42 1.14,2.56 2.56,2.56 1.41,0 2.56,-1.14 2.56,-2.56z"/>
   <path class="fil6" d="M223.03 46.99l0 -10.09c0,-1.41 -1.14,-2.56 -2.56,-2.56 -1.42,0 -2.56,1.15 -2.56,2.56l0 10.09c0,1.41 1.14,2.56 2.56,2.56 1.42,0 2.56,-1.15 2.56,-2.56z"/>
  </g>
 </g>
</svg>
