<?xml version="1.0" encoding="UTF-8"?>
<!DOCTYPE svg PUBLIC "-//W3C//DTD SVG 1.1//EN" "http://www.w3.org/Graphics/SVG/1.1/DTD/svg11.dtd">
<!-- Creator: CorelDRAW 2021 (64-Bit) -->
<svg xmlns="http://www.w3.org/2000/svg" xml:space="preserve" width="300px" height="300px" version="1.1" style="shape-rendering:geometricPrecision; text-rendering:geometricPrecision; image-rendering:optimizeQuality; fill-rule:evenodd; clip-rule:evenodd"
viewBox="0 0 300 300"
 xmlns:xlink="http://www.w3.org/1999/xlink"
 xmlns:xodm="http://www.corel.com/coreldraw/odm/2003">
 <defs>
  <style type="text/css">
   <![CDATA[
    .fil4 {fill:#FEFEFE;fill-rule:nonzero}
    .fil6 {fill:#D4EBF1;fill-rule:nonzero}
    .fil7 {fill:#B2CFD2;fill-rule:nonzero}
    .fil3 {fill:#62BEA1;fill-rule:nonzero}
    .fil1 {fill:#32AC94;fill-rule:nonzero}
    .fil2 {fill:#109685;fill-rule:nonzero}
    .fil5 {fill:#0E7F77;fill-rule:nonzero}
    .fil0 {fill:#CCCCCC;fill-rule:nonzero}
   ]]>
  </style>
 </defs>
 <g id="Layer_x0020_1">
  <metadata id="CorelCorpID_0Corel-Layer"/>
  <g id="_2615679965056">
   <path class="fil0" d="M241.18 300l-208.47 0c-13.95,0 -25.26,-11.31 -25.26,-25.27l0 -242.02c0,-13.95 11.31,-25.26 25.26,-25.26l242.02 0c13.96,0 25.27,11.31 25.27,25.26l0 213.11 -58.82 54.18z"/>
   <path class="fil1" d="M233.73 292.55l-208.46 0c-13.96,0 -25.27,-11.31 -25.27,-25.26l0 -242.02c0,-13.96 11.31,-25.27 25.27,-25.27l242.01 0c13.96,0 25.27,11.31 25.27,25.27l0 213.11 -58.82 54.17z"/>
   <path class="fil2" d="M292.55 67.33l-292.55 0 0 -42.06c0,-13.96 11.31,-25.27 25.27,-25.27l242.01 0c13.96,0 25.27,11.31 25.27,25.27l0 42.06z"/>
   <path class="fil2" d="M241.33 240.53l51.22 -2.15 -58.82 54.17 -4.3 -38.14c-0.81,-7.2 4.65,-13.58 11.9,-13.88z"/>
   <path class="fil3" d="M244.79 242.15l47.76 -3.77 -58.82 54.17 0 -38.43c0,-6.27 4.82,-11.48 11.06,-11.97z"/>
   <path class="fil4" d="M27.19 47.73c-3.24,0 -4.28,-2.58 -5.91,-2.58 -1.32,0 -2.37,1.74 -2.37,2.92 0,2.3 3.83,4.52 8.38,4.52 5.04,0 8.69,-2.71 8.69,-7.71 0,-8.76 -11.02,-8.1 -11.02,-11.58 0,-1.07 1.01,-2.08 3.48,-2.08 2.85,0 3.51,1.32 4.76,1.32 1.53,0 2.15,-1.91 2.15,-2.85 0,-2.71 -5.07,-3.06 -6.91,-3.06 -4.35,0 -8.9,1.98 -8.9,7.19 0,8.14 11.02,7.41 11.02,11.61 0,1.67 -1.78,2.3 -3.37,2.3zm23.45 -3.48c0,2.36 -1.25,3.48 -3.33,3.48 -2.09,0 -3.34,-1.12 -3.34,-3.48l0 -15.78c0,-1.14 -1.39,-1.63 -2.71,-1.63 -1.39,0 -2.71,0.49 -2.71,1.63l0 15.78c0,5.98 3.82,8.2 8.76,8.2 4.9,0 8.76,-2.22 8.76,-8.2l0 -15.78c0,-1.14 -1.4,-1.63 -2.72,-1.63 -1.39,0 -2.71,0.49 -2.71,1.63l0 15.78zm24.12 7.99c1.36,0 2.71,-0.55 2.71,-1.66l0 -22.11c0,-1.14 -1.35,-1.63 -2.71,-1.63 -1.35,0 -2.71,0.49 -2.71,1.63l0 11.82 -5.63 -10.74c-1.32,-2.54 -2.05,-2.71 -3.99,-2.71 -1.36,0 -2.72,0.52 -2.72,1.67l0 22.07c0,1.11 1.36,1.66 2.72,1.66 1.35,0 2.71,-0.55 2.71,-1.66l0 -11.82 6.6 12.02c0.66,1.22 1.77,1.46 3.02,1.46zm8.83 -25.4c-1.42,0 -2.36,0.76 -2.36,1.63l0 22.14c0,0.87 0.94,1.63 2.36,1.63l6.15 0c4.8,0 8.55,-2.22 8.55,-8.2l0 -9c0,-5.98 -3.75,-8.2 -8.55,-8.2l-6.15 0zm6.15 4.73c1.95,0 3.13,1.11 3.13,3.47l0 9c0,2.36 -1.18,3.48 -3.13,3.48l-3.09 0 0 -15.95 3.09 0zm13.73 20.67c0.87,0 1.56,-0.27 1.77,-1l1.18 -4.35 7.34 0 1.18 4.35c0.21,0.73 0.9,1 1.77,1 1.49,0 3.48,-0.94 3.48,-2.22 0,-0.11 -0.04,-0.24 -0.07,-0.38l-6.5 -21.2c-0.39,-1.22 -1.95,-1.81 -3.55,-1.81 -1.6,0 -3.16,0.59 -3.54,1.81l-6.47 21.2c-0.03,0.14 -0.07,0.27 -0.07,0.38 0,1.28 1.98,2.22 3.48,2.22zm4.07 -9.52l2.53 -9.31 2.54 9.31 -5.07 0zm18.07 7.86c0,1.11 1.35,1.66 2.71,1.66 1.35,0 2.71,-0.55 2.71,-1.66l0 -8.73c0,-0.21 0.07,-0.38 0.14,-0.49l7.16 -11.91c0.07,-0.14 0.07,-0.28 0.07,-0.39 0,-1.28 -2.19,-2.22 -3.69,-2.22 -0.87,0 -1.21,0.35 -1.56,1.01l-4.83 8.93 -4.87 -8.93c-0.38,-0.66 -0.69,-1.01 -1.56,-1.01 -1.5,0 -3.69,0.94 -3.69,2.22 0,0.11 0,0.25 0.07,0.39l7.2 11.91c0.07,0.11 0.14,0.28 0.14,0.49l0 8.73z"/>
   <path class="fil2" d="M203.01 123.8l-153.85 0c-5.12,0 -9.28,-4.16 -9.28,-9.29 0,-5.12 4.16,-9.28 9.28,-9.28l153.85 0c5.13,0 9.29,4.16 9.29,9.28 0,5.13 -4.16,9.29 -9.29,9.29z"/>
   <path class="fil2" d="M243.39 164.05l-194.23 0c-5.12,0 -9.28,-4.16 -9.28,-9.29 0,-5.13 4.16,-9.29 9.28,-9.29l194.23 0c5.13,0 9.29,4.16 9.29,9.29 0,5.13 -4.16,9.29 -9.29,9.29z"/>
   <path class="fil2" d="M243.39 204.29l-194.23 0c-5.12,0 -9.28,-4.16 -9.28,-9.28 0,-5.14 4.16,-9.29 9.28,-9.29l194.23 0c5.13,0 9.29,4.15 9.29,9.29 0,5.12 -4.16,9.28 -9.29,9.28z"/>
   <path class="fil2" d="M177.94 244.54l-128.78 0c-5.12,0 -9.28,-4.16 -9.28,-9.29 0,-5.13 4.16,-9.28 9.28,-9.28l128.78 0c5.12,0 9.28,4.15 9.28,9.28 0,5.13 -4.16,9.29 -9.28,9.29z"/>
   <path class="fil5" d="M269.95 35.34c0,8.02 -6.5,14.52 -14.51,14.52 -8.02,0 -14.52,-6.5 -14.52,-14.52 0,-8.01 6.5,-14.5 14.52,-14.5 8.01,0 14.51,6.49 14.51,14.5z"/>
   <path class="fil6" d="M267.63 30.7c0,8.02 -6.5,14.51 -14.52,14.51 -8.01,0 -14.51,-6.49 -14.51,-14.51 0,-8.01 6.5,-14.51 14.51,-14.51 8.02,0 14.52,6.5 14.52,14.51z"/>
   <path class="fil7" d="M256.08 18.55c4.04,4.04 4.04,10.6 0,14.64 -4.04,4.04 -10.6,4.04 -14.64,0 -4.04,-4.04 -4.04,-10.6 0,-14.64 4.04,-4.04 10.6,-4.04 14.64,0z"/>
   <path class="fil4" d="M253.07 15.54c4.04,4.04 4.04,10.6 0,14.64 -4.04,4.04 -10.6,4.04 -14.64,0 -4.04,-4.04 -4.04,-10.6 0,-14.64 4.04,-4.04 10.6,-4.04 14.64,0z"/>
  </g>
 </g>
</svg>
