<?xml version="1.0" encoding="UTF-8"?>
<!DOCTYPE svg PUBLIC "-//W3C//DTD SVG 1.1//EN" "http://www.w3.org/Graphics/SVG/1.1/DTD/svg11.dtd">
<!-- Creator: CorelDRAW 2021 (64-Bit) -->
<svg xmlns="http://www.w3.org/2000/svg" xml:space="preserve" width="249px" height="300px" version="1.1" style="shape-rendering:geometricPrecision; text-rendering:geometricPrecision; image-rendering:optimizeQuality; fill-rule:evenodd; clip-rule:evenodd"
viewBox="0 0 249 299.51"
 xmlns:xlink="http://www.w3.org/1999/xlink"
 xmlns:xodm="http://www.corel.com/coreldraw/odm/2003">
 <defs>
  <style type="text/css">
   <![CDATA[
    .fil4 {fill:#FEFEFE;fill-rule:nonzero}
    .fil6 {fill:#D4EBF1;fill-rule:nonzero}
    .fil7 {fill:#B2CFD2;fill-rule:nonzero}
    .fil2 {fill:#91D3F2;fill-rule:nonzero}
    .fil3 {fill:#52B4E6;fill-rule:nonzero}
    .fil5 {fill:#1090CB;fill-rule:nonzero}
    .fil0 {fill:#CCCCCC;fill-rule:nonzero}
    .fil1 {fill:#E6E6E6;fill-rule:nonzero}
   ]]>
  </style>
 </defs>
 <g id="Layer_x0020_1">
  <metadata id="CorelCorpID_0Corel-Layer"/>
  <g id="_2615685994176">
   <path class="fil0" d="M231.26 276.88c7.65,-3.96 12.43,-12.38 11.34,-21.44l-27.38 -227.85c-1.3,-10.81 -10.48,-18.74 -21.1,-18.74 -0.85,0 -1.7,0.05 -2.57,0.15l-172.8 20.77c-0.34,0.04 -0.68,0.08 -1.01,0.14 2.2,-1.14 4.65,-1.91 7.25,-2.23l172.81 -20.76c0.86,-0.1 1.72,-0.15 2.56,-0.15 10.62,0 19.81,7.93 21.11,18.74l4.19 34.93 23.19 192.92c1.36,11.33 -6.45,21.65 -17.59,23.52z"/>
   <path class="fil1" d="M48.64 300.03c-10.62,0 -19.81,-7.94 -21.1,-18.75l-27.38 -227.84c-1.37,-11.34 6.44,-21.66 17.58,-23.53 -7.65,3.97 -12.43,12.38 -11.34,21.44l4.2 34.94 23.18 192.91c1.3,10.81 10.48,18.74 21.1,18.74 0.85,0 1.7,-0.04 2.57,-0.15l172.8 -20.76c0.34,-0.04 0.68,-0.09 1.01,-0.15 -2.2,1.14 -4.64,1.91 -7.25,2.23l-172.81 20.76c-0.86,0.11 -1.72,0.16 -2.56,0.16z"/>
   <path class="fil0" d="M54.88 297.94c-10.62,0 -19.8,-7.93 -21.1,-18.74l-23.18 -192.91 -4.2 -34.94c-1.09,-9.06 3.69,-17.47 11.34,-21.44 0.33,-0.06 0.67,-0.1 1.01,-0.14l172.8 -20.77c0.87,-0.1 1.72,-0.15 2.57,-0.15 10.62,0 19.8,7.93 21.1,18.74l27.38 227.85c1.09,9.06 -3.69,17.48 -11.34,21.44 -0.33,0.06 -0.67,0.11 -1.01,0.15l-172.8 20.76c-0.87,0.11 -1.72,0.15 -2.57,0.15z"/>
   <path class="fil2" d="M0.16 45.11l27.38 227.84c1.4,11.67 11.99,20 23.66,18.6l172.81 -20.77c11.67,-1.4 19.99,-12 18.59,-23.67l-27.38 -227.84c-1.4,-11.67 -12,-20 -23.67,-18.6l-172.8 20.77c-11.67,1.4 -20,12 -18.59,23.67z"/>
   <path class="fil3" d="M219.42 54.2l-215.07 25.84 -4.19 -34.93c-1.41,-11.67 6.92,-22.27 18.59,-23.67l172.8 -20.77c11.67,-1.4 22.27,6.93 23.67,18.6l4.2 34.93z"/>
   <path class="fil4" d="M14.57 47.84c-0.95,0.11 -1.23,1.2 -1.12,2.16 0.13,1.1 0.74,1.99 1.61,1.89l3.99 -0.48 1.89 15.71c0.11,0.93 1.29,1.25 2.42,1.12 1.13,-0.14 2.21,-0.74 2.09,-1.66l-1.88 -15.72 3.99 -0.48c0.87,-0.1 1.24,-1.11 1.11,-2.21 -0.11,-0.96 -0.64,-1.95 -1.6,-1.84l-12.5 1.51zm28.3 16.64c0.11,0.93 1.3,1.26 2.43,1.12 1.12,-0.14 2.2,-0.73 2.09,-1.66l-2.21 -18.4c-0.12,-0.96 -1.3,-1.23 -2.42,-1.09 -1.13,0.14 -2.21,0.68 -2.1,1.63l0.85 7.09 -5.75 0.69 -0.86 -7.09c-0.11,-0.95 -1.29,-1.22 -2.42,-1.09 -1.13,0.14 -2.2,0.68 -2.09,1.64l2.21 18.4c0.11,0.92 1.3,1.25 2.42,1.12 1.13,-0.14 2.21,-0.74 2.1,-1.67l-0.95 -7.84 5.76 -0.69 0.94 7.84zm16.99 -7.38c0.24,1.97 -0.69,3.02 -2.43,3.23 -1.73,0.2 -2.89,-0.59 -3.12,-2.56l-1.58 -13.14c-0.12,-0.95 -1.32,-1.22 -2.42,-1.09 -1.16,0.14 -2.21,0.68 -2.1,1.63l1.58 13.14c0.6,4.98 4.01,6.45 8.11,5.95 4.08,-0.49 7.07,-2.73 6.48,-7.7l-1.58 -13.14c-0.12,-0.95 -1.32,-1.22 -2.42,-1.09 -1.16,0.14 -2.21,0.68 -2.1,1.63l1.58 13.14zm8.19 4.36c0.11,0.93 1.29,1.25 2.42,1.12 1.13,-0.14 2.2,-0.74 2.09,-1.66l-0.84 -6.98 1.91 -0.23 4.89 7.22c0.39,0.57 0.97,0.74 1.55,0.67 1.33,-0.16 2.69,-1.56 2.55,-2.69 -0.01,-0.14 -0.07,-0.34 -0.2,-0.5l-4.3 -5.97c1.93,-1.02 3.18,-3.05 2.79,-6.29 -0.56,-4.72 -3.9,-5.82 -7.86,-5.34l-5.99 0.72c-0.84,0.1 -1.31,0.8 -1.22,1.53l2.21 18.4zm5.47 -16.72c1.62,-0.19 2.69,0.36 2.93,2.38 0.24,2.03 -0.66,2.81 -2.28,3.01l-2.86 0.34 -0.65 -5.38 2.86 -0.35zm17.01 11.61c-2.69,0.32 -3.81,-1.71 -5.17,-1.55 -1.1,0.13 -1.8,1.68 -1.68,2.67 0.23,1.91 3.64,3.38 7.43,2.92 4.19,-0.5 6.96,-3.12 6.46,-7.29 -0.88,-7.29 -9.98,-5.64 -10.33,-8.54 -0.11,-0.89 0.63,-1.83 2.68,-2.08 2.38,-0.28 3.06,0.75 4.1,0.62 1.27,-0.15 1.6,-1.8 1.51,-2.58 -0.27,-2.26 -4.53,-2.04 -6.07,-1.86 -3.61,0.44 -7.2,2.54 -6.68,6.88 0.81,6.77 9.91,5.06 10.33,8.56 0.17,1.39 -1.25,2.09 -2.58,2.25zm9.43 -18.77c-1.19,0.14 -1.89,0.87 -1.8,1.59l2.21 18.43c0.09,0.73 0.95,1.27 2.13,1.13l5.12 -0.62c4,-0.48 6.9,-2.7 6.3,-7.68l-0.9 -7.5c-0.6,-4.97 -3.95,-6.45 -7.94,-5.97l-5.12 0.62zm5.59 3.32c1.62,-0.2 2.72,0.61 2.96,2.58l0.9 7.49c0.23,1.97 -0.64,3.01 -2.26,3.21l-2.58 0.31 -1.59 -13.28 2.57 -0.31zm13.5 15.84c0.73,-0.09 1.28,-0.39 1.38,-1.02l0.55 -3.73 6.1 -0.74 1.42 3.5c0.25,0.59 0.85,0.75 1.58,0.66 1.24,-0.14 2.8,-1.12 2.67,-2.2 -0.01,-0.08 -0.06,-0.19 -0.1,-0.31l-7.53 -17c-0.44,-0.97 -1.8,-1.31 -3.13,-1.15 -1.33,0.16 -2.58,0.81 -2.77,1.86l-3.26 18.3c-0.02,0.12 -0.03,0.24 -0.02,0.32 0.13,1.08 1.87,1.66 3.11,1.51zm2.43 -8.34l1.19 -8 3.04 7.5 -4.23 0.5zm15.84 4.74c0.11,0.92 1.29,1.25 2.42,1.11 1.13,-0.13 2.2,-0.73 2.09,-1.66l-0.87 -7.26c-0.02,-0.17 0.02,-0.33 0.06,-0.42l4.77 -10.64c0.05,-0.12 0.03,-0.24 0.02,-0.33 -0.13,-1.07 -2.04,-1.63 -3.29,-1.48 -0.72,0.09 -0.98,0.41 -1.2,1l-3.13 7.92 -4.94 -6.95c-0.39,-0.51 -0.68,-0.77 -1.4,-0.69 -1.25,0.15 -2.98,1.15 -2.85,2.22 0.01,0.09 0.02,0.21 0.1,0.32l7.18 9.2c0.07,0.08 0.14,0.22 0.16,0.39l0.88 7.27z"/>
   <path class="fil3" d="M183.6 100.17l-147.63 17.74c-4.27,0.52 -8.15,-2.53 -8.66,-6.8 -0.52,-4.27 2.53,-8.15 6.8,-8.66l147.63 -17.74c4.27,-0.51 8.15,2.53 8.66,6.8 0.51,4.27 -2.54,8.15 -6.8,8.66z"/>
   <path class="fil3" d="M187.62 133.68l-147.62 17.74c-4.27,0.52 -8.15,-2.53 -8.67,-6.8 -0.51,-4.27 2.54,-8.15 6.81,-8.66l147.62 -17.74c4.27,-0.52 8.15,2.53 8.67,6.8 0.51,4.27 -2.54,8.15 -6.81,8.66z"/>
   <polygon class="fil3" points="199.38,166.26 36.29,185.86 34.43,170.39 197.52,150.8 "/>
   <path class="fil3" d="M150.86 251.19l-97.47 11.71c-4.27,0.51 -8.15,-2.53 -8.66,-6.8 -0.51,-4.27 2.53,-8.15 6.8,-8.66l97.46 -11.72c4.28,-0.51 8.15,2.54 8.67,6.81 0.51,4.27 -2.54,8.15 -6.8,8.66z"/>
   <path class="fil5" d="M200.18 35.81c0,6.72 -5.45,12.17 -12.17,12.17 -6.72,0 -12.17,-5.45 -12.17,-12.17 0,-6.72 5.45,-12.17 12.17,-12.17 6.72,0 12.17,5.45 12.17,12.17z"/>
   <path class="fil6" d="M198.23 31.92c0,6.72 -5.45,12.17 -12.17,12.17 -6.72,0 -12.16,-5.45 -12.16,-12.17 0,-6.72 5.44,-12.17 12.16,-12.17 6.72,0 12.17,5.45 12.17,12.17z"/>
   <path class="fil7" d="M188.55 21.73c3.39,3.39 3.39,8.88 0,12.27 -3.39,3.39 -8.88,3.39 -12.27,0 -3.39,-3.39 -3.39,-8.88 0,-12.27 3.39,-3.39 8.88,-3.39 12.27,0z"/>
   <path class="fil4" d="M186.03 19.21c3.38,3.38 3.38,8.88 0,12.27 -3.39,3.39 -8.89,3.39 -12.28,0 -3.39,-3.39 -3.39,-8.89 0,-12.27 3.39,-3.4 8.89,-3.4 12.28,0z"/>
  </g>
 </g>
</svg>
