<?xml version="1.0" encoding="UTF-8"?>
<!DOCTYPE svg PUBLIC "-//W3C//DTD SVG 1.1//EN" "http://www.w3.org/Graphics/SVG/1.1/DTD/svg11.dtd">
<!-- Creator: CorelDRAW 2021 (64-Bit) -->
<svg xmlns="http://www.w3.org/2000/svg" xml:space="preserve" width="236px" height="300px" version="1.1" style="shape-rendering:geometricPrecision; text-rendering:geometricPrecision; image-rendering:optimizeQuality; fill-rule:evenodd; clip-rule:evenodd"
viewBox="0 0 236 300.62"
 xmlns:xlink="http://www.w3.org/1999/xlink"
 xmlns:xodm="http://www.corel.com/coreldraw/odm/2003">
 <defs>
  <style type="text/css">
   <![CDATA[
    .fil4 {fill:#FEFEFE;fill-rule:nonzero}
    .fil3 {fill:#E4EAA4;fill-rule:nonzero}
    .fil6 {fill:#D4EBF1;fill-rule:nonzero}
    .fil1 {fill:#CED75C;fill-rule:nonzero}
    .fil7 {fill:#B2CFD2;fill-rule:nonzero}
    .fil2 {fill:#B0CB4E;fill-rule:nonzero}
    .fil5 {fill:#85BE47;fill-rule:nonzero}
    .fil0 {fill:#CCCCCC;fill-rule:nonzero}
   ]]>
  </style>
 </defs>
 <g id="Layer_x0020_1">
  <metadata id="CorelCorpID_0Corel-Layer"/>
  <g id="_2615685984240">
   <path class="fil0" d="M209.05 300.62l-150.39 0 -52.82 -48.64 0 -219.19c0,-14.42 11.69,-26.11 26.12,-26.11l177.09 0c14.42,0 26.11,11.69 26.11,26.11l0 241.72c0,14.42 -11.69,26.11 -26.11,26.11z"/>
   <path class="fil1" d="M51.97 293.94l150.4 0c14.41,0 26.1,-11.69 26.1,-26.11l0 -241.72c0,-14.42 -11.69,-26.11 -26.1,-26.11l-177.1 0c-14.42,0 -26.11,11.69 -26.11,26.11l0 219.19 52.81 48.64z"/>
   <path class="fil2" d="M-0.84 60.45l229.31 0 0 -34.34c0,-14.42 -11.69,-26.11 -26.1,-26.11l-177.1 0c-14.42,0 -26.11,11.69 -26.11,26.11l0 34.34z"/>
   <path class="fil2" d="M40.93 247.05l-41.77 -1.75 52.81 48.64 3.39 -30.05c0.98,-8.74 -5.64,-16.48 -14.43,-16.84z"/>
   <path class="fil3" d="M33.74 242.63l-34.58 2.67 52.81 48.64 0 -34.43c0,-9.86 -8.4,-17.64 -18.23,-16.88z"/>
   <path class="fil4" d="M16.76 23.75c-1.03,0 -1.47,1.12 -1.47,2.15 0,1.19 0.53,2.22 1.47,2.22l4.31 0 0 16.94c0,1 1.21,1.5 2.43,1.5 1.22,0 2.43,-0.5 2.43,-1.5l0 -16.94 4.31 0c0.94,0 1.47,-1.03 1.47,-2.22 0,-1.03 -0.44,-2.15 -1.47,-2.15l-13.48 0zm27.64 15.63c0,2.12 -1.12,3.12 -2.99,3.12 -1.87,0 -3,-1 -3,-3.12l0 -14.17c0,-1.03 -1.24,-1.46 -2.43,-1.46 -1.25,0 -2.43,0.43 -2.43,1.46l0 14.17c0,5.37 3.43,7.36 7.86,7.36 4.4,0 7.86,-1.99 7.86,-7.36l0 -14.17c0,-1.03 -1.25,-1.46 -2.43,-1.46 -1.25,0 -2.44,0.43 -2.44,1.46l0 14.17zm13.02 -11.39l8.36 0c0.94,0 1.47,-1 1.47,-2.15 0,-1 -0.44,-2.09 -1.47,-2.09l-11.11 0c-1.06,0 -2.12,0.5 -2.12,1.5l0 19.81c0,1 1.06,1.5 2.12,1.5l11.11 0c1.03,0 1.47,-1.1 1.47,-2.09 0,-1.16 -0.53,-2.16 -1.47,-2.16l-8.36 0 0 -5.3 4.68 0c1.03,0 1.46,-1 1.46,-1.84 0,-1 -0.53,-1.91 -1.46,-1.91l-4.68 0 0 -5.27zm18.28 14.51c-2.9,0 -3.84,-2.31 -5.3,-2.31 -1.19,0 -2.12,1.56 -2.12,2.62 0,2.06 3.43,4.06 7.52,4.06 4.52,0 7.8,-2.43 7.8,-6.93 0,-7.86 -9.89,-7.27 -9.89,-10.39 0,-0.97 0.9,-1.87 3.12,-1.87 2.55,0 3.15,1.18 4.27,1.18 1.37,0 1.94,-1.71 1.94,-2.55 0,-2.44 -4.56,-2.75 -6.21,-2.75 -3.9,0 -7.99,1.78 -7.99,6.46 0,7.3 9.89,6.65 9.89,10.42 0,1.5 -1.59,2.06 -3.03,2.06zm12.42 -18.75c-1.28,0 -2.12,0.68 -2.12,1.46l0 19.88c0,0.78 0.84,1.47 2.12,1.47l5.52 0c4.31,0 7.68,-2 7.68,-7.37l0 -8.08c0,-5.37 -3.37,-7.36 -7.68,-7.36l-5.52 0zm5.52 4.24c1.75,0 2.81,1 2.81,3.12l0 8.08c0,2.12 -1.06,3.12 -2.81,3.12l-2.77 0 0 -14.32 2.77 0zm12.33 18.57c0.78,0 1.4,-0.25 1.59,-0.91l1.06 -3.9 6.59 0 1.06 3.9c0.18,0.66 0.81,0.91 1.59,0.91 1.34,0 3.12,-0.85 3.12,-2 0,-0.09 -0.03,-0.22 -0.06,-0.34l-5.84 -19.04c-0.34,-1.09 -1.75,-1.62 -3.18,-1.62 -1.44,0 -2.84,0.53 -3.19,1.62l-5.8 19.04c-0.03,0.12 -0.06,0.25 -0.06,0.34 0,1.15 1.78,2 3.12,2zm3.65 -8.55l2.28 -8.37 2.28 8.37 -4.56 0zm16.22 7.05c0,1 1.22,1.5 2.44,1.5 1.21,0 2.43,-0.5 2.43,-1.5l0 -7.83c0,-0.19 0.06,-0.35 0.13,-0.44l6.42 -10.7c0.07,-0.13 0.07,-0.25 0.07,-0.35 0,-1.15 -1.97,-1.99 -3.31,-1.99 -0.78,0 -1.09,0.31 -1.41,0.9l-4.33 8.02 -4.37 -8.02c-0.34,-0.59 -0.63,-0.9 -1.41,-0.9 -1.34,0 -3.3,0.84 -3.3,1.99 0,0.1 0,0.22 0.06,0.35l6.46 10.7c0.06,0.09 0.12,0.25 0.12,0.44l0 7.83z"/>
   <path class="fil2" d="M196.37 110.14l-159.19 0c-4.61,0 -8.34,-3.74 -8.34,-8.34 0,-4.6 3.73,-8.34 8.34,-8.34l159.19 0c4.61,0 8.34,3.74 8.34,8.34 0,4.6 -3.73,8.34 -8.34,8.34z"/>
   <path class="fil2" d="M196.37 146.27l-159.19 0c-4.61,0 -8.34,-3.73 -8.34,-8.34 0,-4.6 3.73,-8.33 8.34,-8.33l159.19 0c4.61,0 8.34,3.73 8.34,8.33 0,4.61 -3.73,8.34 -8.34,8.34z"/>
   <path class="fil2" d="M146.38 182.41l-109.2 0c-4.61,0 -8.34,-3.73 -8.34,-8.34 0,-4.61 3.73,-8.34 8.34,-8.34l109.2 0c4.6,0 8.34,3.73 8.34,8.34 0,4.61 -3.74,8.34 -8.34,8.34z"/>
   <path class="fil5" d="M206.87 29.53c0,7.2 -5.83,13.03 -13.03,13.03 -7.19,0 -13.03,-5.83 -13.03,-13.03 0,-7.19 5.84,-13.03 13.03,-13.03 7.2,0 13.03,5.84 13.03,13.03z"/>
   <path class="fil6" d="M204.79 25.36c0,7.2 -5.84,13.03 -13.03,13.03 -7.2,0 -13.03,-5.83 -13.03,-13.03 0,-7.19 5.83,-13.02 13.03,-13.02 7.19,0 13.03,5.83 13.03,13.02z"/>
   <path class="fil7" d="M194.42 14.45c3.63,3.63 3.63,9.52 0,13.14 -3.63,3.63 -9.51,3.63 -13.14,0 -3.63,-3.62 -3.63,-9.51 0,-13.14 3.63,-3.63 9.51,-3.63 13.14,0z"/>
   <path class="fil4" d="M191.72 11.75c3.63,3.63 3.63,9.51 0,13.14 -3.63,3.63 -9.51,3.63 -13.14,0 -3.63,-3.63 -3.63,-9.51 0,-13.14 3.63,-3.63 9.51,-3.63 13.14,0z"/>
  </g>
 </g>
</svg>
