<?xml version="1.0" encoding="UTF-8"?>
<!DOCTYPE svg PUBLIC "-//W3C//DTD SVG 1.1//EN" "http://www.w3.org/Graphics/SVG/1.1/DTD/svg11.dtd">
<!-- Creator: CorelDRAW 2021 (64-Bit) -->
<svg xmlns="http://www.w3.org/2000/svg" xml:space="preserve" width="300px" height="297px" version="1.1" style="shape-rendering:geometricPrecision; text-rendering:geometricPrecision; image-rendering:optimizeQuality; fill-rule:evenodd; clip-rule:evenodd"
viewBox="0 0 300 296.96"
 xmlns:xlink="http://www.w3.org/1999/xlink"
 xmlns:xodm="http://www.corel.com/coreldraw/odm/2003">
 <defs>
  <style type="text/css">
   <![CDATA[
    .fil3 {fill:#FEFEFE;fill-rule:nonzero}
    .fil4 {fill:#F6B14C;fill-rule:nonzero}
    .fil1 {fill:#FEEB73;fill-rule:nonzero}
    .fil2 {fill:#F9CE4D;fill-rule:nonzero}
    .fil5 {fill:#D4EBF1;fill-rule:nonzero}
    .fil6 {fill:#B2CFD2;fill-rule:nonzero}
    .fil0 {fill:#CCCCCC;fill-rule:nonzero}
   ]]>
  </style>
 </defs>
 <g id="Layer_x0020_1">
  <metadata id="CorelCorpID_0Corel-Layer"/>
  <g id="_2617540163984">
   <path class="fil0" d="M55.36 296.96c-11.99,0 -22.27,-9.09 -23.5,-21.28l-22.18 -220.71c-0.25,-2.44 -0.11,-4.83 0.35,-7.11 0.62,-3.04 1.83,-5.88 3.52,-8.4 0.84,-1.26 1.8,-2.43 2.87,-3.51 0.53,-0.54 1.09,-1.05 1.67,-1.54 1.17,-0.97 2.43,-1.83 3.78,-2.57 1.35,-0.73 2.78,-1.35 4.28,-1.81 1.5,-0.47 3.07,-0.8 4.69,-0.96l220.71 -22.18c0.81,-0.08 1.61,-0.12 2.4,-0.12 3.2,0 6.28,0.64 9.1,1.83 2.82,1.18 5.37,2.89 7.52,5.03 0.54,0.53 1.05,1.09 1.54,1.67 1.94,2.33 3.45,5.06 4.38,8.06 0.47,1.5 0.79,3.07 0.96,4.69l3.83 38.1 18.35 182.61c1.31,12.99 -8.17,24.59 -21.16,25.89l-220.71 22.19c-0.81,0.08 -1.6,0.12 -2.4,0.12z"/>
   <path class="fil1" d="M-0.13 48.2l22.19 220.71c1.31,13 12.9,22.47 25.9,21.17l220.71 -22.19c12.99,-1.31 22.47,-12.9 21.16,-25.89l-22.19 -220.71c-1.3,-13 -12.9,-22.47 -25.89,-21.17l-220.71 22.19c-13,1.31 -22.47,12.9 -21.17,25.89z"/>
   <path class="fil2" d="M271.47 59.39l-267.77 26.91 -3.83 -38.1c-1.3,-12.99 8.17,-24.58 21.17,-25.89l220.71 -22.19c12.99,-1.3 24.59,8.17 25.89,21.17l3.83 38.1z"/>
   <path class="fil3" d="M44.44 46.98c0.03,-0.1 0.04,-0.26 0.03,-0.42 -0.11,-1.08 -1.98,-1.79 -3.41,-1.65 -0.77,0.08 -1.38,0.4 -1.5,1.08l-3.2 16.81 -3.59 -10.5c-0.28,-0.84 -1.44,-1.18 -2.52,-1.07 -1.08,0.11 -2.15,0.67 -2.25,1.55l-1.44 11 -6.47 -15.83c-0.26,-0.65 -0.92,-0.84 -1.68,-0.76 -1.44,0.14 -3.13,1.21 -3.02,2.29 0.02,0.16 0.07,0.32 0.11,0.41l8.28 18.77c0.46,1.08 1.98,1.47 3.44,1.32 1.43,-0.14 2.9,-0.84 3.05,-1.98l0.89 -7.7 2.41 7.37c0.37,1.09 1.95,1.48 3.38,1.33 1.47,-0.14 2.84,-0.83 3.11,-1.98l4.38 -20.04zm7.04 1.25l8.52 -0.85c0.96,-0.1 1.4,-1.17 1.28,-2.35 -0.11,-1.02 -0.66,-2.09 -1.71,-1.98l-11.33 1.14c-1.08,0.11 -2.11,0.73 -2.01,1.74l2.03 20.2c0.11,1.02 1.24,1.42 2.32,1.31l11.32 -1.14c1.05,-0.1 1.39,-1.26 1.29,-2.28 -0.12,-1.18 -0.77,-2.14 -1.72,-2.04l-8.52 0.85 -0.55 -5.4 4.77 -0.48c1.05,-0.11 1.4,-1.17 1.31,-2.03 -0.1,-1.02 -0.74,-1.89 -1.69,-1.79l-4.77 0.48 -0.54 -5.38zm13.91 -5.77c-1.31,0.14 -2.09,0.92 -2.01,1.72l2.03 20.26c0.08,0.8 1.01,1.41 2.32,1.28l5.63 -0.57c4.39,-0.44 7.62,-2.82 7.07,-8.29l-0.83 -8.24c-0.55,-5.47 -4.19,-7.16 -8.58,-6.72l-5.63 0.56zm6.06 3.77c1.78,-0.18 2.97,0.73 3.19,2.89l0.82 8.24c0.22,2.16 -0.76,3.29 -2.54,3.46l-2.83 0.29 -1.47 -14.6 2.83 -0.28zm26.65 16.43c1.24,-0.12 2.43,-0.75 2.33,-1.77l-2.03 -20.23c-0.11,-1.05 -1.39,-1.37 -2.63,-1.25 -1.24,0.13 -2.44,0.7 -2.33,1.75l1.08 10.81 -6.14 -9.31c-1.44,-2.2 -2.12,-2.29 -3.91,-2.11 -1.24,0.12 -2.43,0.72 -2.32,1.77l2.03 20.2c0.1,1.02 1.39,1.4 2.63,1.28 1.24,-0.13 2.43,-0.76 2.33,-1.78l-1.09 -10.81 7.15 10.4c0.72,1.05 1.76,1.17 2.9,1.05zm8.98 -20.02l8.52 -0.85c0.96,-0.1 1.4,-1.17 1.28,-2.35 -0.1,-1.02 -0.66,-2.08 -1.71,-1.98l-11.32 1.14c-1.09,0.11 -2.11,0.73 -2.01,1.74l2.03 20.2c0.1,1.02 1.23,1.42 2.31,1.31l11.33 -1.14c1.05,-0.1 1.38,-1.26 1.28,-2.28 -0.12,-1.17 -0.76,-2.14 -1.72,-2.04l-8.52 0.85 -0.55 -5.4 4.77 -0.48c1.05,-0.11 1.4,-1.17 1.31,-2.03 -0.1,-1.02 -0.73,-1.89 -1.69,-1.79l-4.77 0.48 -0.54 -5.38zm20.13 12.92c-2.96,0.3 -4.15,-1.96 -5.65,-1.81 -1.21,0.12 -2,1.81 -1.89,2.89 0.21,2.1 3.91,3.78 8.08,3.37 4.61,-0.47 7.7,-3.28 7.24,-7.87 -0.8,-8.01 -10.83,-6.39 -11.14,-9.57 -0.1,-0.99 0.73,-2.01 2.98,-2.23 2.61,-0.26 3.34,0.88 4.48,0.77 1.4,-0.14 1.8,-1.95 1.71,-2.81 -0.25,-2.48 -4.92,-2.33 -6.61,-2.16 -3.97,0.4 -7.96,2.63 -7.48,7.4 0.75,7.45 10.77,5.76 11.15,9.61 0.16,1.53 -1.41,2.26 -2.87,2.41zm10.73 -20.39c-1.3,0.13 -2.09,0.92 -2.01,1.71l2.04 20.27c0.08,0.79 1.01,1.4 2.31,1.27l5.63 -0.56c4.39,-0.44 7.62,-2.82 7.07,-8.29l-0.82 -8.24c-0.55,-5.47 -4.2,-7.17 -8.58,-6.72l-5.64 0.56zm6.07 3.76c1.78,-0.18 2.97,0.73 3.18,2.9l0.83 8.23c0.22,2.17 -0.76,3.29 -2.54,3.47l-2.83 0.29 -1.47 -14.6 2.83 -0.29zm14.47 17.67c0.79,-0.08 1.4,-0.4 1.53,-1.09l0.68 -4.08 6.71 -0.68 1.48 3.87c0.26,0.65 0.92,0.84 1.72,0.76 1.37,-0.14 3.09,-1.18 2.97,-2.36 -0.01,-0.09 -0.05,-0.22 -0.1,-0.34l-7.89 -18.81c-0.47,-1.08 -1.95,-1.47 -3.42,-1.32 -1.46,0.14 -2.84,0.83 -3.07,1.97l-3.97 20c-0.02,0.13 -0.04,0.26 -0.03,0.36 0.12,1.18 2.02,1.85 3.39,1.72zm2.84 -9.09l1.47 -8.76 3.18 8.29 -4.65 0.47zm17.27 5.52c0.1,1.02 1.39,1.41 2.63,1.28 1.24,-0.13 2.43,-0.76 2.33,-1.78l-0.8 -7.98c-0.02,-0.19 0.02,-0.36 0.08,-0.46l5.45 -11.57c0.06,-0.13 0.04,-0.26 0.03,-0.35 -0.12,-1.18 -2.21,-1.84 -3.57,-1.7 -0.8,0.08 -1.09,0.43 -1.34,1.07l-3.6 8.61 -5.28 -7.72c-0.41,-0.57 -0.73,-0.86 -1.52,-0.78 -1.37,0.14 -3.29,1.2 -3.17,2.37 0.01,0.1 0.02,0.23 0.1,0.35l7.68 10.25c0.07,0.08 0.15,0.24 0.17,0.43l0.81 7.98z"/>
   <path class="fil2" d="M231.96 118.46l-177.77 17.87c-4.7,0.47 -8.88,-2.96 -9.36,-7.65 -0.47,-4.7 2.96,-8.89 7.65,-9.36l177.77 -17.86c4.69,-0.48 8.88,2.95 9.35,7.64 0.47,4.7 -2.95,8.88 -7.64,9.36z"/>
   <path class="fil2" d="M235.66 155.29l-177.77 17.87c-4.69,0.47 -8.88,-2.95 -9.35,-7.64 -0.48,-4.7 2.95,-8.89 7.64,-9.36l177.77 -17.87c4.69,-0.47 8.88,2.95 9.35,7.65 0.48,4.69 -2.95,8.88 -7.64,9.35z"/>
   <path class="fil2" d="M239.36 192.13l-177.77 17.87c-4.69,0.47 -8.88,-2.95 -9.35,-7.65 -0.47,-4.69 2.95,-8.88 7.64,-9.36l177.77 -17.86c4.7,-0.47 8.89,2.95 9.36,7.64 0.47,4.7 -2.95,8.89 -7.65,9.36z"/>
   <path class="fil2" d="M183.16 234.99l-117.86 11.84c-4.7,0.47 -8.89,-2.95 -9.36,-7.64 -0.47,-4.7 2.95,-8.89 7.65,-9.36l117.86 -11.85c4.69,-0.47 8.88,2.96 9.35,7.65 0.48,4.7 -2.95,8.88 -7.64,9.36z"/>
   <path class="fil4" d="M249.48 30.44c0,7.37 -5.97,13.35 -13.35,13.35 -7.37,0 -13.35,-5.98 -13.35,-13.35 0,-7.37 5.98,-13.35 13.35,-13.35 7.38,0 13.35,5.98 13.35,13.35z"/>
   <path class="fil5" d="M247.35 26.17c0,7.37 -5.98,13.35 -13.35,13.35 -7.38,0 -13.35,-5.98 -13.35,-13.35 0,-7.37 5.97,-13.35 13.35,-13.35 7.37,0 13.35,5.98 13.35,13.35z"/>
   <path class="fil6" d="M236.72 14.99c3.72,3.72 3.72,9.74 0,13.46 -3.71,3.72 -9.74,3.72 -13.46,0 -3.72,-3.72 -3.72,-9.74 0,-13.46 3.72,-3.72 9.75,-3.72 13.46,0z"/>
   <path class="fil3" d="M233.95 12.22c3.72,3.72 3.72,9.75 0,13.46 -3.71,3.72 -9.74,3.72 -13.46,0 -3.72,-3.71 -3.72,-9.74 0,-13.46 3.72,-3.72 9.75,-3.72 13.46,0z"/>
  </g>
 </g>
</svg>
